<svg width="314" height="207" fill="none" xmlns="http://www.w3.org/2000/svg">
    <path d="M362.66 10.256 289.617 32.99l24 173.614 120.609-14.842L362.66 10.256Z" fill="#263238"
          style="mix-blend-mode:multiply" opacity=".2"/>
    <path d="m96.515 21.57 90.161 11.013 150.952.407-24.012 173.614-156.673-25.715L.023 207 96.515 21.57Z"
          fill="#263238" style="mix-blend-mode:multiply" opacity=".12"/>
    <path d="m302.232 51.837-9.79-.093-2.087-15.47 11.009-3.493.868 19.056ZM302.279 54.166l.528 11.303c-2.72.954-5.456 1.96-8.207 3.015l-1.958-14.412h3.998l5.639.093ZM307.238 39.172l-.481-8.16 66.794-21.397 3.893 15.215-70.206 14.342ZM377.948 26.797l.997 3.9-51.916 27.74a234.094 234.094 0 0 0-18.313 5.076l-1.325-22.339 70.557-14.377ZM304.038 91.149l-5.933 2.153-1.172-8.218c2.216-.92 4.443-1.793 6.659-2.608l.446 8.673ZM312.116 120.996l42.477-13.724-13.037 23.037-19.111 11.443a33.324 33.324 0 0 0-9.028.443l-1.301-21.199ZM305.304 118.691l-3.565 1.165-1.594-11.583 4.619-1.269.54 11.687ZM306.476 144.104c-.457.163-.891.337-1.337.524l-2.813-20.465 3.189-1.025.961 20.966ZM310.803 99.018l12.041-1.304 1.242 14.889-12.193 3.981-1.09-17.566ZM311.717 79.683a178.461 178.461 0 0 1 9.684-2.818l.727 12.212.493 6.018-11.971 1.27-.961-16.019 2.028-.663Z"
          fill="#DDE4E9"/>
    <path d="M466.456 151.636 469 156.56l-8.711 2.852-146.555 47.239-.763-5.506 3.881-1.246 50.146-16.228-1.853-12.618-48.562 25.109-.364-6.1 48.07-24.76-3.857-25.936-23.085 11.641a12.409 12.409 0 0 0-2.732-4.168l25.055-12.583-3.33-22.572-11.22 20.034-18.185 10.826a25.175 25.175 0 0 0-4.525-.815l19.146-11.42 13.037-23.072 8.067-2.538 4.256 25.948 18.454-9.15-8.583-21.361 4.538-1.467 8.547 20.593 10.751-5.25 1.266 4.796-34.129 16.938 4.244 25.68 36.346-18.323 1.43 5.389-36.826 18.626 2.344 13.969 39.77-12.898 8.699-2.805 22.394-7.218 8.864-9.522-.845-1.723-36.345-2.328-1.595-5.46 27.529-13.666-10.552-22.048-23.883 11.641-1.348-4.75 23.156-11.292-9.849-20.954a199.596 199.596 0 0 0-23.812-4.889c-2.525-.372-5.147-.71-7.867-1.013l-1.606-.174a192.243 192.243 0 0 0-30.859-.745l4.76 29.161-6.952 2.246-1.173-8.23c-4.889.489-15.64 1.665-26.778 2.875l1.289 13.97-4.22 1.373-1.232-14.924-12.041 1.27-.152-2.655 11.971-1.269-.493-6.018-.727-12.212c-3.224.839-6.46 1.782-9.684 2.818l-2.028.663a246.488 246.488 0 0 0-6.05 2.13 174.75 174.75 0 0 0-6.66 2.608l-.504-3.702a207.438 207.438 0 0 1 14.609-5.308 194.046 194.046 0 0 1 80.277-8.3 215.786 215.786 0 0 1 27.119 4.365l-6.425-13.876c-3.858-.5-7.903-.943-12.135-1.28a233.222 233.222 0 0 0-53.018 1.385 223.789 223.789 0 0 0-37.589 8.603 232.051 232.051 0 0 0-14.069 5.052l-.469-3.492a229.56 229.56 0 0 1 8.207-3.015 216.63 216.63 0 0 1 5.862-1.956 241.114 241.114 0 0 1 18.314-5.076l51.916-27.74.563 2.165-44.694 23.876c4.35-.862 8.711-1.618 13.085-2.235a244.393 244.393 0 0 1 36.556-2.41c2.415 0 4.831.05 7.246.151a272.416 272.416 0 0 1 18.184 1.246L388.031 5.029l-8.465 2.712-5.862 1.886-66.829 21.396-5.393 1.735-11.01 3.492-.375-2.736 96.809-31.023 5.592-1.78 1.173 2.479 72.785 148.446Zm-11.525 3.713 2.943-.943-.716-1.455-2.227 2.398Zm-2.638-12.235-6.167-12.805-22.277 11.036 28.444 1.769ZM326.15 88.029l.621 6.67 5.358-.582 17.282-1.955 3.939-.431-2.931-19.988c-8.463.781-16.86 2.162-25.125 4.133l.856 12.153Z"
          fill="#fff"/>
    <path d="m304.647 104.373-4.854 1.327-1.36-9.953 5.722-2.084.492 10.71Z" fill="#ADEEBF"/>
    <path d="m304.764 107.004-4.619 1.269-.352-2.573 4.854-1.327.117 2.631ZM304.155 93.663l-5.722 2.084-.328-2.445 5.933-2.153.117 2.514ZM302.337 54.166h-9.52l-.316-2.329 9.789.093.047 2.236ZM377.948 26.798l-70.581 14.376-.129-2.002 70.206-14.342.504 1.968Z"
          fill="#fff"/>
    <path d="m304.764 107.027-.117-2.631-.492-10.71-.118-2.514-.398-8.672a115.222 115.222 0 0 1 6.049-2.13l.962 16.017.152 2.654 1.056 17.567 12.228-3.947 4.221-1.373 26.696-8.615 6.953-2.246 32.348-10.477-4.69-17.8c2.72.303 5.342.641 7.867 1.014l10.552 37.181 1.348 4.749 6.859 24.039 1.583 5.495 5.979 20.755-8.734 2.806-5.3-19.79-1.43-5.39-6.449-24.294-1.266-4.796-5.229-19.86-14.069 4.552-4.538 1.467-14.069 4.563-8.066 2.596-42.537 13.759 1.267 21.187a33.282 33.282 0 0 1 9.028-.442c1.53.132 3.045.405 4.525.814a17.149 17.149 0 0 1 7.68 4.273 12.377 12.377 0 0 1 2.731 4.167c.243.64.435 1.298.575 1.968 2.052 9.941-7.867 22.117-22.276 27.542l.574 9.546.363 6.1.223 3.69-3.881 1.245-3.376-24.329a26.902 26.902 0 0 0 3.388-.873c11.197-3.597 19.158-12.922 17.716-20.582-1.407-7.438-11.174-10.477-21.737-7.124a30.739 30.739 0 0 0-3.142 1.164l-.657-4.761c.446-.186.879-.361 1.337-.524l-.962-20.954-3.189 1.025-.586-4.307 3.517-1.164-.469-11.63ZM302.232 51.837l-.868-19.09 5.393-1.735.481 8.148.129 2.003 1.325 22.339c-1.946.628-3.9 1.28-5.862 1.955l-.528-11.303-.07-2.317Z"
          fill="#fff"/>
    <path d="M309.302 66.912a223.768 223.768 0 0 1 37.588-8.602 233.22 233.22 0 0 1 53.03-1.339c4.232.338 8.277.78 12.135 1.28l6.424 13.853a215.73 215.73 0 0 0-27.118-4.307 194.043 194.043 0 0 0-80.277 8.3 197.225 197.225 0 0 0-14.609 5.308l-1.289-9.417a229.66 229.66 0 0 1 14.116-5.076Z"
          fill="#AAE5FF"/>
    <path d="M308.938 148.178c10.552-3.399 20.331-.314 21.737 7.124 1.443 7.66-6.518 16.985-17.715 20.582a26.902 26.902 0 0 1-3.388.873l-3.776-27.368a30.63 30.63 0 0 1 3.142-1.211Z"
          fill="#ADEEBF"/>
    <path d="m156.943 146.118 4.643-2.061-1.43 9.953-2.638.769-.575-8.661ZM147.903 124.919l1.02 19.732-42.559 18.777 8.5-26.018a412.435 412.435 0 0 0 23.718-8.533 212.662 212.662 0 0 0 9.321-3.958ZM136.214 72.337l2.075-6.274 17.634-.839-19.709 7.113ZM133.377 80.975l1.97-6.007 27.763-10.093 10.001-.477-.938 6.507-.235.897-38.561 9.173ZM104.324 169.609l44.822-20.034.387 7.555-45.514 13.399.305-.92ZM96.269 68.007l-17 32.92-9.462 2.27 10.247-34.469 16.215-.721ZM177.156 19.988l2.415-.07-5.909 40.673-20.611.955 24.105-41.558Z"
          fill="#DDE4E9"/>
    <path d="m109.529 21.815-32.195 25.75-6.706.338-.915 2.328 4.96-.245-8.97 10.303-3.681 9.313 5.217-.233L53.58 90.88l-7.034 17.764 24.621-39.451 4.69-.21L65 104.409l-18.56 4.447-1.84 4.656 32.218-7.822-10.177 19.789a133.02 133.02 0 0 1-6.378.198 78.158 78.158 0 0 1-19.662-2.037l-2.403 6.076-6.226 15.832-2.345 6.077c2.26.116 4.678.171 7.258.163 5.346 0 10.962-.326 16.79-.885l-12.898 25.226-18.196-6.659-1.934 4.936 17.692 6.519-5.452 10.733-21.491 6.414L81.508 20.558l-.809 2.014 28.83-.757ZM171.317 74.281l-1.278 5.017-39.183 9.325 1.653-5.04 38.808-9.302ZM154.317 17.566l3.505-10.57 24.246-4.295-.222 1.513-18.29 13.108-9.239.244ZM181.224 8.498l-1.219 8.37-10.74.29 11.959-8.66ZM152.183 7.997l-3.365 9.709-59.795 1.49 63.16-11.199ZM105.637 63.7l36.569-26.845-8.817 25.599-27.752 1.245ZM167.108 90.87c-7.879 7.135-17.305 13.247-31.222 18.427a319.316 319.316 0 0 1-13.366 4.657l6.917-21.07 39.57-9.523-1.899 7.508ZM79.879 146.816a310.904 310.904 0 0 0 18.36-4.435 349.53 349.53 0 0 0 8.606-2.468l-9.38 27.438-31.468 13.969-18.572-3.283 13.929-28.055a261.423 261.423 0 0 0 18.525-3.166ZM159.135 20.5l-7.597 5.448 1.759-5.297 5.838-.151Z"
          fill="#DDE4E9"/>
    <path d="M113.082 21.722h.797a1387.79 1387.79 0 0 0 9.087 8.393c5.862 5.39 8.758 7.905 10.247 9.069l-8.313 6.03-43.662 2.177 31.844-25.669ZM132.052 66.354l-8.23 23.933-23.895 5.705 16.039-28.893 16.086-.745ZM95.26 97.11l-8.523 2.036 15.793-31.43 9.544-.431-16.813 29.824ZM139.567 62.175l10.189-30.826 15.148-11.012 8.887-.256-24.516 41.64-9.708.454ZM56.594 184.568l-14.527 4.33 3.142-6.367 11.385 2.037ZM147.751 20.802l-3.623 10.477-7.89 5.693c-3.342-2.748-11.092-9.755-17.247-15.413l28.76-.757Z"
          fill="#DDE4E9"/>
    <path d="m75.716 21.56 1.172-2.83 5.769-1.012L182.432.256l-.364 2.48-24.246 4.295-3.517 10.57-5.499.14 3.365-9.709-63.16 11.199-7.48 1.327L11.42 198.071l21.491-6.414 9.145-2.724 14.527-4.33-11.385-2.037 2.228-4.529 18.607 3.306L97.5 167.374l9.38-27.438c-2.885.862-5.769 1.7-8.606 2.468a309.332 309.332 0 0 1-18.36 4.435 263.549 263.549 0 0 1-18.525 3.167c-2.603.337-5.159.64-7.691.884-5.863.559-11.443.874-16.79.885-2.58 0-4.998-.054-7.257-.163l2.345-6.076c2.978.221 6.284.36 9.942.349a205.066 205.066 0 0 0 40.355-4.54 297.44 297.44 0 0 0 17.317-4.121 369.132 369.132 0 0 0 38.339-12.689 159.132 159.132 0 0 0 28.561-14.295l-.903 6.263c-.34-.093-.633-.186-.903-.279a157.017 157.017 0 0 1-9.379 5.145l1.325 19.894 5.733-2.514-.774 5.308-4.69 2.061.575 8.661 2.638-.769-.751 5.122L8.969 204.276-.001 207l2.545-6.309L75.716 21.559Zm30.624 141.868 42.583-18.777-.996-19.732a188.357 188.357 0 0 1-9.38 3.958 412.706 412.706 0 0 1-23.718 8.533l-8.489 26.018Zm42.806-13.853-44.775 20.034-.305.908 45.467-13.434-.387-7.508Z"
          fill="#fff"/>
    <path d="M155.302 121.369a178.237 178.237 0 0 0 9.379-5.145c.27.093.563.186.903.279l-3.212 22.246-5.734 2.514-1.336-19.894ZM122.333 94.63l-7.41 21.71a276.892 276.892 0 0 1-10.552 2.945 207.366 207.366 0 0 1-30.484 5.576l10.552-21.082 37.894-9.15ZM78.471 49.765l43.158-2.188-22.57 16.413-34.106 1.467 13.518-15.692Z"
          fill="#ADEEBF"/>
    <path d="m71.214 69.124-24.656 39.451 7.035-17.764L67.24 69.3l-5.218.233 3.682-9.278 8.969-10.302-4.96.244.915-2.305 6.707-.326 32.195-25.75 3.552-.093L81.239 47.38l43.661-2.177-3.271 2.375-43.157 2.188-13.518 15.692 34.106-1.466-1.138.826-.293.57-1.36 2.62-16.215.721-10.247 34.469-4.771 1.141 10.856-35.423-4.678.21ZM153.297 20.651l-1.759 5.297-7.41 5.343 3.623-10.489 5.546-.15ZM20.682 174.37l1.934-4.935 18.197 6.658-2.44 4.796-17.691-6.519Z"
          fill="#fff"/>
    <path d="m135.347 74.968-1.982 6.007 38.573-9.173-.621 2.48-38.808 9.312-1.653 5.04-7.035 1.665 8.207-23.934-16.085.745-16.04 28.893-4.69 1.164 16.814-29.824-9.544.43 1.372-2.746 1.735-1.27 27.752-1.245 8.816-25.61 7.598-5.541-10.212 30.814 9.708-.454 24.515-41.64 3.365-.093-24.105 41.558 20.611-.955-.551 3.807-10.001.477-27.739 10.093Zm.867-2.63 19.744-7.113-17.587.838-2.157 6.274ZM113.879 21.71l5.112-.14c6.155 5.658 13.905 12.666 17.247 15.413l-3.025 2.189c-1.489-1.164-4.362-3.679-10.247-9.068-3.717-3.4-7.351-6.776-9.087-8.394ZM40.813 176.093l12.897-25.226c2.532-.244 5.088-.547 7.69-.885l-13.975 28.055-2.215 4.482-3.143 6.368-9.145 2.724 5.452-10.733 2.439-4.785Z"
          fill="#fff"/>
    <path d="m169.007 83.384-39.569 9.523-7.105 1.723-37.894 9.173-10.552 21.082c-2.438.256-4.83.43-7.175.558l10.177-19.789-32.313 7.799 1.841-4.656 18.56-4.447 4.772-1.164 9.461-2.27 17-32.933 1.36-2.607.294-.57 1.172-.827 22.57-16.414 3.271-2.328 8.312-6.03 3.025-2.189 7.891-5.692 7.41-5.343 7.597-5.46-5.862.163-5.546.151-28.76.769-5.112.14h-.797l-3.517.093-28.795.721.809-2.014 7.48-1.327 59.794-1.49 5.499-.14 9.239-.244 18.29-13.108-.621 4.284-11.959 8.661 10.739-.29-.434 3.049-2.415.07-3.365.093-8.887.256-15.136 11-7.551 5.507-36.568 26.844-1.735 1.269-1.372 2.747-15.793 31.43 8.524-2.036 4.69-1.164 23.894-5.704 7.035-1.665 39.183-9.313 1.278-5.017.621-2.48.235-.896-2.556 17.601a59.437 59.437 0 0 1-2.509 2.328l1.875-7.427Z"
          fill="#fff"/>
    <path d="M99.622 137.201a350.798 350.798 0 0 1-17.317 4.121 205.142 205.142 0 0 1-40.355 4.54c-3.658 0-6.964-.129-9.942-.35l6.225-15.831a94.54 94.54 0 0 0 17.458 1.35c14.187-.093 30.108-2.433 47.343-6.915a327.706 327.706 0 0 0 33.415-10.721c14.069-5.32 24.082-11.42 32.207-18.23l-2.146 15.075a159.153 159.153 0 0 1-28.549 14.249 369.263 369.263 0 0 1-38.339 12.712Z"
          fill="#AAE5FF"/>
    <path d="M136.449 113.395a327.706 327.706 0 0 1-33.415 10.721c-17.235 4.482-33.156 6.822-47.343 6.915a94.628 94.628 0 0 1-17.458-1.35l2.404-6.077a78.163 78.163 0 0 0 19.662 2.049c2.075 0 4.209-.082 6.378-.198 2.169-.117 4.69-.303 7.175-.559a207.366 207.366 0 0 0 30.484-5.576 223.672 223.672 0 0 0 10.552-2.945l7.445-21.734 7.105-1.723-6.918 21.071a372.55 372.55 0 0 0 13.366-4.657c13.917-5.18 23.343-11.292 31.222-18.428.856-.78 1.688-1.56 2.509-2.328l-.961 6.659c-8.125 6.74-18.114 12.84-32.207 18.16Z"
          fill="#fff"/>
    <path d="m203.313 167.467-43.463-13.305 1.454-9.977 44.424 6.426-2.415 16.856ZM262.346 61.627l-.528-3.248 9.872 4.657a117.402 117.402 0 0 0-9.344-1.409ZM219.833 105.537l.879-7.031 42.782 13.073 1.759 12.013-45.42-18.055ZM172.032 70.917l.95-6.52.786.373-1.736 6.147ZM181.857 4.051l.223-1.513 2.744.838-2.967.675ZM216.761 129.809c2.462-.396 4.913-.839 7.328-1.281 9.086-1.665 17.516-3.201 24.621-1.443 9.591 2.328 15.242 5.494 18.079 7.357l2.943 20.209-55.152-8.044 2.181-16.798ZM256.53 25.424l33.462 10.29 2.133 15.355L257.41 30.86l-.88-5.436ZM174.776 61.173l-1.231-.593 5.991-40.779 6.109 2.852-10.869 38.52ZM186.465 19.766l-6.472-3.026 1.231-8.393 9.075-2.13-3.834 13.55ZM188.001 111.777c10.798-3.586 18.372-9.208 25.407-14.575l-4.291 29.999a51.279 51.279 0 0 1-15.758-.256 54.994 54.994 0 0 1-24.305-11.443 77.494 77.494 0 0 0 18.947-3.725Z"
          fill="#DDE4E9"/>
    <path d="M248.218 124.07c-8.512-2.096-17.446-.501-27.084 1.222l-3.892.698 2.251-17.799 46.194 18.393.645 4.4a66.696 66.696 0 0 0-13.331-5.599 98.077 98.077 0 0 0-4.783-1.315ZM265.195 79.38c8.21.536 16.371 1.653 24.422 3.34 2.345.478 4.689.99 7.034 1.537l1.173 8.219-31.926-8.73-.703-4.366ZM261.231 54.643l-3.458-21.536 21.104 12.316 13.588 7.916 1.982 14.342c-3.494-.87-6.988-1.68-10.482-2.433l-22.734-10.605ZM267.914 96.317l32.02 11.129 1.606 11.606-31.527-9.638-2.099-13.097ZM282.066 154.383c.065.714.187 1.423.364 2.118l-5.007-.733-6.718-41.989 31.433 9.604 2.838 20.558c-13.695-3.155-23.766 1.047-22.91 10.442ZM296.522 196.023l12.088 1.618.094 2.107-12.182-3.725ZM307.93 180.878l.445 10.884-25.793-3.492-4.327-27.124 6.508.943c4.279 7.148 12.967 14.342 23.167 18.789ZM258.77 79.217l4.091 28.02-44.763-13.678c10.2-7.707 20.564-14.226 40.672-14.342ZM180.392 67.983l12.533 6.065c-2.345 1.479-4.537 3.015-6.776 4.54-1.794 1.234-3.518 2.445-5.3 3.586l-3.881-1.164 3.424-13.027ZM211.684 170.028l2.298-18.218 56.583 8.184 3.951 27.146-12.569-1.711-50.263-15.401ZM209.093 43.374l-22.417.757 4.561-17.229 17.856 16.472ZM212.54 43.246l-17.833-16.344 33.755 15.809-15.922.535ZM256.096 60.894a135.265 135.265 0 0 0-24.621-.221l-16.414-15.04 18.278-.664 21.972 10.29.785 5.635ZM176.405 84.968l-.574.337.117-.477.457.14Z"
          fill="#DDE4E9"/>
    <path d="m159.1 159.284.751-5.122 43.474 13.305 2.403-16.856-44.424-6.426.774-5.308 44.401 6.496 2.075-14.552c-4.891.472-9.824.26-14.656-.628a62.97 62.97 0 0 1-28.56-13.585l.914-6.286c20.506-1.677 31.808-10.186 42.313-18.09 15.805-11.874 30.988-23.282 79.398-13.47 2.767.548 5.511 1.165 8.207 1.805l.516 3.69c-2.345-.547-4.69-1.059-7.034-1.536a174.442 174.442 0 0 0-24.481-3.341l.703 4.389 31.949 8.707.34 2.433-31.902-8.696 1.173 7.52 32.078 11.141.363 2.561-32.019-11.118 2.098 13.097.692 4.365 6.718 41.989 5.007.733a20.982 20.982 0 0 0 2.345 5.565l-6.508-.943 4.374 27.123 25.793 3.493.235 5.82-12.088-1.618 12.182 3.725 4.15 1.269.762 5.588L159.1 159.284Zm106.587-32.7-46.194-18.393-2.251 17.799 3.892-.698c9.637-1.723 18.572-3.318 27.083-1.222a86.2 86.2 0 0 1 4.784 1.315 66.696 66.696 0 0 1 13.331 5.599l-.645-4.4Zm-72.363.361a51.272 51.272 0 0 0 15.757.256l4.327-29.999c-6.965 5.367-14.574 10.931-25.372 14.575a77.479 77.479 0 0 1-18.982 3.725 54.985 54.985 0 0 0 24.27 11.443Zm69.537-19.708-4.092-28.02c-20.107.116-30.483 6.635-40.648 14.342l-3.271 2.502-.598.466 6.46 1.979-.891 6.985 45.432 18.055-1.759-12.014-.633-4.295Zm3.975 27.205c-2.779-1.863-8.489-5.006-18.079-7.357-7.152-1.758-15.582-.222-24.622 1.443-2.415.442-4.865.885-7.327 1.281l-2.228 16.798 55.105 8.078-2.849-20.243Zm3.728 25.552-56.582-8.149-2.345 18.218 50.31 15.366 12.557 1.711-3.94-27.146Z"
          fill="#fff"/>
    <path d="m211.684 45.75 16.555 15.272a85.17 85.17 0 0 0-8.84 1.525 76.7 76.7 0 0 0-22.734 9.185l-15.312-7.392 4.69-17.66 25.641-.93ZM266.296 86.213l31.903 8.696 1.371 9.953-32.078-11.129-1.196-7.52ZM193.898 130.193c4.832.888 9.765 1.1 14.656.628l-2.075 14.552-44.401-6.496 3.26-22.269a62.97 62.97 0 0 0 28.56 13.585ZM196.501 6.961l54.132 16.647 4.103 28.043-62.35-29.114 4.115-15.576Z"
          fill="#ADEEBF"/>
    <path d="m173.768 64.77-.786-.372.563-3.818 1.231.593-1.008 3.597ZM270.013 109.414l31.527 9.638.598 4.331-31.433-9.604-.692-4.365ZM214.252 96.55l.598-.465 3.248-2.526 44.74 13.678.633 4.342-42.782-13.073-6.437-1.956ZM257.773 33.142l3.458 21.5-6.495-3.026-4.103-28.043-54.132-16.658-1.97-.606-9.708-2.98-2.743-.838.363-2.491 107.173 33.002.375 2.712-33.461-10.29.879 5.436 34.716 20.209.317 2.328-13.589-7.916-21.08-12.34Z"
          fill="#fff"/>
    <path d="m194.531 6.356 1.97.605-4.115 15.576 62.35 29.102 6.496 3.027 22.71 10.605-1.923-.407c-3.517-.734-7.035-1.362-10.329-1.921l-9.872-4.657-6.554-3.073-21.925-10.244-4.83-2.258-33.86-15.809-3.096-1.455-.375 1.455-4.502 17.264-.668 2.55-4.69 17.659-.961 3.643-3.424 13.003 3.881 1.164a110.57 110.57 0 0 1-4.444 2.794l-.457-.14-.117.478a62.127 62.127 0 0 1-6.39 3.26l2.626-17.637 1.736-6.146 1.008-3.597 10.868-38.52-6.108-2.852.457-3.062 6.449 2.957 3.834-13.55-9.075 2.13.633-4.295 2.966-.676 9.731 3.027ZM308.704 199.748l-.094-2.107-.234-5.821-.446-10.884c-10.2-4.447-18.888-11.641-23.144-18.812a21.023 21.023 0 0 1-2.345-5.564 13.583 13.583 0 0 1-.363-2.119c-.856-9.394 9.215-13.597 22.909-10.477l.657 4.796c-9.684-1.955-16.602 1.234-15.887 8.009.739 6.985 9.216 15.273 19.709 19.615l3.4 24.656-4.15-1.269-.012-.023Z"
          fill="#fff"/>
    <path d="M208.566 92.231c-10.552 7.905-21.808 16.414-42.314 18.091l2.216-15.134c9.262-2.712 16.227-7.601 23.789-12.921 8.946-6.275 17.821-12.503 31.82-15.809 15.535-3.655 34.939-2.91 59.548 2.13 3.776.777 7.535 1.627 11.279 2.55l1.302 9.394a258.924 258.924 0 0 0-8.208-1.804c-48.445-9.755-63.628 1.63-79.432 13.504Z"
          fill="#AAE5FF"/>
    <path d="M283.625 68.612c-24.621-5.04-44.013-5.82-59.548-2.13-13.999 3.306-22.874 9.534-31.82 15.808-7.562 5.32-14.527 10.21-23.789 12.922l.973-6.659a62.127 62.127 0 0 0 6.39-3.26l.575-.337a110.54 110.54 0 0 0 4.443-2.794c1.747-1.164 3.517-2.328 5.3-3.585 2.239-1.525 4.478-3.062 6.776-4.54l-12.533-6.065.961-3.644 15.312 7.392a76.699 76.699 0 0 1 22.734-9.185 85.098 85.098 0 0 1 8.84-1.525l-16.555-15.273-25.676.932.668-2.503 22.417-.757-17.856-16.472.375-1.455 3.037 1.42L212.482 43.2l15.921-.536 4.936 2.305-18.161.664 16.414 15.04c8.197-.675 16.439-.601 24.622.221l-.833-5.634 6.554 3.073.528 3.248c3.025.384 6.132.838 9.379 1.373 3.248.536 6.777 1.164 10.329 1.921l1.923.408c3.494.776 6.988 1.587 10.482 2.433l.481 3.492a288.735 288.735 0 0 0-11.432-2.596Z"
          fill="#fff"/>
    <path d="M289.745 156.746c-.715-6.775 6.203-9.965 15.887-8.009l3.822 27.624c-10.458-4.342-18.97-12.665-19.709-19.615Z"
          fill="#ADEEBF"/>
    <path d="M182.455.047 289.616 32.99l24 173.613-154.516-47.32L182.455.047Z" fill="#263238"
          style="mix-blend-mode:multiply" opacity=".2"/>
</svg>