<svg width="24" height="24" fill="none" xmlns="http://www.w3.org/2000/svg">
    <path fill-rule="evenodd" clip-rule="evenodd"
          d="M6.75 2.25A3.75 3.75 0 0 0 3 6v12a3.75 3.75 0 0 0 3.75 3.75h6A3.75 3.75 0 0 0 16.5 18v-1a.75.75 0 0 0-1.5 0v1a2.25 2.25 0 0 1-2.25 2.25h-6A2.25 2.25 0 0 1 4.5 18V6a2.25 2.25 0 0 1 2.25-2.25h6A2.25 2.25 0 0 1 15 6v1a.75.75 0 0 0 1.5 0V6a3.75 3.75 0 0 0-3.75-3.75h-6Zm5.03 7.28a.75.75 0 0 0-1.06-1.06l-3 3a.75.75 0 0 0 0 1.06l3 3a.75.75 0 1 0 1.06-1.06l-1.72-1.72h10.19a.75.75 0 0 0 0-1.5H10.06l1.72-1.72Z"
          fill="#000B26" fill-opacity=".72"/>
</svg>